<svg xmlns="http://www.w3.org/2000/svg" xmlns:xlink="http://www.w3.org/1999/xlink" width="500" zoomAndPan="magnify" viewBox="0 0 375 374.999991" height="500" preserveAspectRatio="xMidYMid meet" version="1.0"><defs><g/></defs><g fill="#3d3b3a" fill-opacity="1"><g transform="translate(161.381727, 189.494028)"><g><path d="M 51.515625 -0.96875 C 51.671875 -0.96875 51.75 -0.804688 51.75 -0.484375 C 51.75 -0.160156 51.671875 0 51.515625 0 L 42.515625 0 C 42.085938 0 41.320312 0.0078125 40.21875 0.03125 C 39.125 0.0625 37.582031 -1.300781 35.59375 -4.0625 C 33.613281 -6.820312 31.710938 -9.351562 29.890625 -11.65625 L 17.59375 -27.15625 L 14.953125 -24.59375 L 14.953125 -6.515625 C 14.953125 -4.898438 15.109375 -3.703125 15.421875 -2.921875 C 15.742188 -2.148438 16.375 -1.628906 17.3125 -1.359375 C 18.25 -1.097656 19.738281 -0.96875 21.78125 -0.96875 C 21.9375 -0.96875 22.015625 -0.804688 22.015625 -0.484375 C 22.015625 -0.160156 21.9375 0 21.78125 0 C 20.164062 0 18.878906 -0.0234375 17.921875 -0.078125 L 12.296875 -0.15625 L 6.828125 -0.078125 C 5.867188 -0.0234375 4.53125 0 2.8125 0 C 2.707031 0 2.65625 -0.160156 2.65625 -0.484375 C 2.65625 -0.804688 2.707031 -0.96875 2.8125 -0.96875 C 4.84375 -0.96875 6.328125 -1.097656 7.265625 -1.359375 C 8.203125 -1.628906 8.84375 -2.148438 9.1875 -2.921875 C 9.539062 -3.703125 9.71875 -4.898438 9.71875 -6.515625 L 9.71875 -43.71875 C 9.71875 -45.320312 9.554688 -46.5 9.234375 -47.25 C 8.921875 -48 8.296875 -48.519531 7.359375 -48.8125 C 6.421875 -49.113281 4.929688 -49.265625 2.890625 -49.265625 C 2.785156 -49.265625 2.734375 -49.421875 2.734375 -49.734375 C 2.734375 -50.054688 2.785156 -50.21875 2.890625 -50.21875 L 6.90625 -50.140625 C 9.15625 -50.035156 10.953125 -49.984375 12.296875 -49.984375 C 13.847656 -49.984375 15.75 -50.035156 18 -50.140625 L 21.78125 -50.21875 C 21.9375 -50.21875 22.015625 -50.054688 22.015625 -49.734375 C 22.015625 -49.421875 21.9375 -49.265625 21.78125 -49.265625 C 19.789062 -49.265625 18.328125 -49.101562 17.390625 -48.78125 C 16.453125 -48.457031 15.8125 -47.90625 15.46875 -47.125 C 15.125 -46.351562 14.953125 -45.164062 14.953125 -43.5625 L 14.953125 -26.59375 L 32.140625 -43.71875 C 33.910156 -45.488281 34.796875 -46.800781 34.796875 -47.65625 C 34.796875 -48.726562 33.210938 -49.265625 30.046875 -49.265625 C 29.941406 -49.265625 29.890625 -49.421875 29.890625 -49.734375 C 29.890625 -50.054688 29.941406 -50.21875 30.046875 -50.21875 L 33.515625 -50.140625 C 35.648438 -50.035156 37.601562 -49.984375 39.375 -49.984375 C 41.144531 -49.984375 42.992188 -50.035156 44.921875 -50.140625 L 47.890625 -50.21875 C 48.054688 -50.21875 48.140625 -50.054688 48.140625 -49.734375 C 48.140625 -49.421875 48.054688 -49.265625 47.890625 -49.265625 C 45.691406 -49.265625 43.359375 -48.78125 40.890625 -47.8125 C 38.429688 -46.851562 36.128906 -45.328125 33.984375 -43.234375 L 21.296875 -30.78125 L 32.859375 -15.984375 C 36.773438 -10.898438 39.765625 -7.3125 41.828125 -5.21875 C 43.890625 -3.132812 45.484375 -1.90625 46.609375 -1.53125 C 47.734375 -1.15625 49.367188 -0.96875 51.515625 -0.96875 Z M 51.515625 -0.96875 "/></g></g></g><g fill="#3d3b3a" fill-opacity="1"><g transform="translate(160.447495, 189.494028)"><g><path d="M 54.890625 -0.96875 C 54.992188 -0.96875 55.046875 -0.804688 55.046875 -0.484375 C 55.046875 -0.160156 54.992188 0 54.890625 0 L 44.515625 0 C 43.179688 0 40.664062 -2.222656 36.96875 -6.671875 C 33.269531 -11.117188 28.875 -17.222656 23.78125 -24.984375 C 22.332031 -24.671875 20.832031 -24.515625 19.28125 -24.515625 C 18.957031 -24.515625 17.753906 -24.59375 15.671875 -24.75 L 15.671875 -6.515625 C 15.671875 -4.847656 15.832031 -3.640625 16.15625 -2.890625 C 16.476562 -2.140625 17.109375 -1.628906 18.046875 -1.359375 C 18.984375 -1.097656 20.46875 -0.96875 22.5 -0.96875 C 22.65625 -0.96875 22.734375 -0.804688 22.734375 -0.484375 C 22.734375 -0.160156 22.65625 0 22.5 0 C 20.84375 0 19.53125 -0.0234375 18.5625 -0.078125 L 13.015625 -0.15625 L 7.546875 -0.078125 C 6.585938 -0.0234375 5.222656 0 3.453125 0 C 3.347656 0 3.296875 -0.160156 3.296875 -0.484375 C 3.296875 -0.804688 3.347656 -0.96875 3.453125 -0.96875 C 5.492188 -0.96875 6.992188 -1.097656 7.953125 -1.359375 C 8.921875 -1.628906 9.578125 -2.148438 9.921875 -2.921875 C 10.273438 -3.703125 10.453125 -4.898438 10.453125 -6.515625 L 10.453125 -43.71875 C 10.453125 -45.320312 10.289062 -46.5 9.96875 -47.25 C 9.644531 -48 9.015625 -48.519531 8.078125 -48.8125 C 7.140625 -49.113281 5.648438 -49.265625 3.609375 -49.265625 C 3.453125 -49.265625 3.375 -49.421875 3.375 -49.734375 C 3.375 -50.054688 3.453125 -50.21875 3.609375 -50.21875 L 7.546875 -50.140625 C 9.796875 -50.035156 11.617188 -49.984375 13.015625 -49.984375 C 14.191406 -49.984375 15.289062 -50.007812 16.3125 -50.0625 C 17.332031 -50.113281 18.191406 -50.164062 18.890625 -50.21875 C 20.867188 -50.382812 22.660156 -50.46875 24.265625 -50.46875 C 28.492188 -50.46875 31.757812 -49.503906 34.0625 -47.578125 C 36.375 -45.648438 37.53125 -43.078125 37.53125 -39.859375 C 37.53125 -36.960938 36.6875 -34.347656 35 -32.015625 C 33.3125 -29.691406 31.070312 -27.859375 28.28125 -26.515625 C 32.78125 -20.035156 36.570312 -14.957031 39.65625 -11.28125 C 42.738281 -7.613281 45.472656 -4.976562 47.859375 -3.375 C 50.242188 -1.769531 52.585938 -0.96875 54.890625 -0.96875 Z M 15.671875 -26.671875 C 17.003906 -26.460938 18.582031 -26.359375 20.40625 -26.359375 C 24.582031 -26.359375 27.566406 -27.269531 29.359375 -29.09375 C 31.160156 -30.914062 32.0625 -33.726562 32.0625 -37.53125 C 32.0625 -41.707031 31.132812 -44.707031 29.28125 -46.53125 C 27.4375 -48.351562 24.75 -49.265625 21.21875 -49.265625 C 19.125 -49.265625 17.675781 -48.890625 16.875 -48.140625 C 16.070312 -47.390625 15.671875 -45.863281 15.671875 -43.5625 Z M 15.671875 -26.671875 "/></g></g></g></svg>