<svg xmlns="http://www.w3.org/2000/svg" xmlns:xlink="http://www.w3.org/1999/xlink" width="500" zoomAndPan="magnify" viewBox="0 0 375 374.999991" height="500" preserveAspectRatio="xMidYMid meet" version="1.0"><defs><g/><clipPath id="662f904e6f"><rect x="0" width="208" y="0" height="375"/></clipPath></defs><g transform="matrix(1, 0, 0, 1, 84, 0)"><g clip-path="url(#662f904e6f)"><g fill="#4361ee" fill-opacity="1"><g transform="translate(1.928958, 286.666669)"><g><path d="M 200.296875 -3.75 C 200.921875 -3.75 201.234375 -3.125 201.234375 -1.875 C 201.234375 -0.625 200.921875 0 200.296875 0 L 165.296875 0 C 163.628906 0 160.660156 0.0507812 156.390625 0.15625 C 152.128906 0.257812 146.144531 -5.050781 138.4375 -15.78125 C 130.726562 -26.507812 123.332031 -36.351562 116.25 -45.3125 L 68.4375 -105.625 L 58.125 -95.625 L 58.125 -25.3125 C 58.125 -19.0625 58.75 -14.425781 60 -11.40625 C 61.25 -8.382812 63.695312 -6.351562 67.34375 -5.3125 C 70.988281 -4.269531 76.769531 -3.75 84.6875 -3.75 C 85.3125 -3.75 85.625 -3.125 85.625 -1.875 C 85.625 -0.625 85.3125 0 84.6875 0 C 78.4375 0 73.4375 -0.101562 69.6875 -0.3125 L 47.8125 -0.625 L 26.5625 -0.3125 C 22.8125 -0.101562 17.601562 0 10.9375 0 C 10.519531 0 10.3125 -0.625 10.3125 -1.875 C 10.3125 -3.125 10.519531 -3.75 10.9375 -3.75 C 18.851562 -3.75 24.632812 -4.269531 28.28125 -5.3125 C 31.925781 -6.351562 34.425781 -8.382812 35.78125 -11.40625 C 37.132812 -14.425781 37.8125 -19.0625 37.8125 -25.3125 L 37.8125 -169.984375 C 37.8125 -176.234375 37.1875 -180.816406 35.9375 -183.734375 C 34.6875 -186.648438 32.238281 -188.679688 28.59375 -189.828125 C 24.945312 -190.972656 19.164062 -191.546875 11.25 -191.546875 C 10.832031 -191.546875 10.625 -192.171875 10.625 -193.421875 C 10.625 -194.671875 10.832031 -195.296875 11.25 -195.296875 L 26.875 -194.984375 C 35.625 -194.566406 42.601562 -194.359375 47.8125 -194.359375 C 53.851562 -194.359375 61.25 -194.566406 70 -194.984375 L 84.6875 -195.296875 C 85.3125 -195.296875 85.625 -194.671875 85.625 -193.421875 C 85.625 -192.171875 85.3125 -191.546875 84.6875 -191.546875 C 76.976562 -191.546875 71.300781 -190.921875 67.65625 -189.671875 C 64.007812 -188.421875 61.507812 -186.285156 60.15625 -183.265625 C 58.800781 -180.242188 58.125 -175.609375 58.125 -169.359375 L 58.125 -103.4375 L 125 -169.984375 C 131.875 -176.859375 135.3125 -181.960938 135.3125 -185.296875 C 135.3125 -189.460938 129.164062 -191.546875 116.875 -191.546875 C 116.457031 -191.546875 116.25 -192.171875 116.25 -193.421875 C 116.25 -194.671875 116.457031 -195.296875 116.875 -195.296875 L 130.3125 -194.984375 C 138.644531 -194.566406 146.25 -194.359375 153.125 -194.359375 C 159.988281 -194.359375 167.171875 -194.566406 174.671875 -194.984375 L 186.234375 -195.296875 C 186.859375 -195.296875 187.171875 -194.671875 187.171875 -193.421875 C 187.171875 -192.171875 186.859375 -191.546875 186.234375 -191.546875 C 177.691406 -191.546875 168.628906 -189.671875 159.046875 -185.921875 C 149.472656 -182.171875 140.519531 -176.234375 132.1875 -168.109375 L 82.8125 -119.6875 L 127.8125 -62.1875 C 143.019531 -42.394531 154.628906 -28.4375 162.640625 -20.3125 C 170.660156 -12.1875 176.859375 -7.394531 181.234375 -5.9375 C 185.609375 -4.476562 191.960938 -3.75 200.296875 -3.75 Z M 200.296875 -3.75 "/></g></g></g></g></g><g fill="#4361ee" fill-opacity="1"><g transform="translate(82.341342, 286.749957)"><g><path d="M 213.4375 -3.75 C 213.851562 -3.75 214.0625 -3.125 214.0625 -1.875 C 214.0625 -0.625 213.851562 0 213.4375 0 L 173.125 0 C 167.914062 0 158.125 -8.644531 143.75 -25.9375 C 129.375 -43.226562 112.289062 -66.976562 92.5 -97.1875 C 86.875 -95.9375 81.039062 -95.3125 75 -95.3125 C 73.75 -95.3125 69.0625 -95.625 60.9375 -96.25 L 60.9375 -25.3125 C 60.9375 -18.851562 61.5625 -14.164062 62.8125 -11.25 C 64.0625 -8.332031 66.507812 -6.351562 70.15625 -5.3125 C 73.800781 -4.269531 79.582031 -3.75 87.5 -3.75 C 88.125 -3.75 88.4375 -3.125 88.4375 -1.875 C 88.4375 -0.625 88.125 0 87.5 0 C 81.039062 0 75.9375 -0.101562 72.1875 -0.3125 L 50.625 -0.625 L 29.375 -0.3125 C 25.625 -0.101562 20.3125 0 13.4375 0 C 13.019531 0 12.8125 -0.625 12.8125 -1.875 C 12.8125 -3.125 13.019531 -3.75 13.4375 -3.75 C 21.351562 -3.75 27.1875 -4.269531 30.9375 -5.3125 C 34.6875 -6.351562 37.238281 -8.382812 38.59375 -11.40625 C 39.945312 -14.425781 40.625 -19.0625 40.625 -25.3125 L 40.625 -170 C 40.625 -176.25 40 -180.832031 38.75 -183.75 C 37.5 -186.664062 35.050781 -188.695312 31.40625 -189.84375 C 27.757812 -190.988281 21.976562 -191.5625 14.0625 -191.5625 C 13.4375 -191.5625 13.125 -192.1875 13.125 -193.4375 C 13.125 -194.6875 13.4375 -195.3125 14.0625 -195.3125 L 29.375 -195 C 38.125 -194.582031 45.207031 -194.375 50.625 -194.375 C 55.207031 -194.375 59.476562 -194.476562 63.4375 -194.6875 C 67.394531 -194.894531 70.726562 -195.101562 73.4375 -195.3125 C 81.144531 -195.9375 88.125 -196.25 94.375 -196.25 C 110.832031 -196.25 123.539062 -192.5 132.5 -185 C 141.457031 -177.5 145.9375 -167.5 145.9375 -155 C 145.9375 -143.75 142.65625 -133.59375 136.09375 -124.53125 C 129.53125 -115.46875 120.832031 -108.332031 110 -103.125 C 127.5 -77.914062 142.238281 -58.175781 154.21875 -43.90625 C 166.195312 -29.632812 176.820312 -19.375 186.09375 -13.125 C 195.363281 -6.875 204.476562 -3.75 213.4375 -3.75 Z M 60.9375 -103.75 C 66.144531 -102.914062 72.289062 -102.5 79.375 -102.5 C 95.625 -102.5 107.238281 -106.039062 114.21875 -113.125 C 121.195312 -120.207031 124.6875 -131.144531 124.6875 -145.9375 C 124.6875 -162.1875 121.09375 -173.851562 113.90625 -180.9375 C 106.71875 -188.019531 96.25 -191.5625 82.5 -191.5625 C 74.375 -191.5625 68.75 -190.101562 65.625 -187.1875 C 62.5 -184.269531 60.9375 -178.332031 60.9375 -169.375 Z M 60.9375 -103.75 "/></g></g></g></svg>